<svg viewBox="0 0 380 432" xmlns="http://www.w3.org/2000/svg"><g fill="none" fill-rule="evenodd"><path d="M189.298 426.276c56.683 0 102.751-.252 102.706 2.687-.049 3.175-46.023 2.686-102.706 2.686-56.687 0-102.71.331-102.71-2.686 0-3.018 46.023-2.687 102.71-2.687" fill="#000"/><path d="M189.86 374.754H43.552c-55.845 0-54.512-57.23-15.707-96.036C66.652 239.912 99.4 266.551 99.4 266.551s2.618-67.189 36.65-67.189c34.03 0 44.04 20.943 44.04 20.943l9.207 66.317.562 88.132z" fill="#EDF8FF"/><path d="M189.298 199.362h189.857v175.392H189.298z"/><path d="M189.298 374.754h146.304c55.846 0 54.512-57.23 15.706-96.036-38.805-38.806-71.553-12.167-71.553-12.167s-2.618-67.189-36.65-67.189c-34.03 0-44.039 20.943-44.039 20.943l-9.207 66.317-.561 88.132z" fill="#EDF8FF"/><path d="M211.404 58.781l3.236 10.896a19.277 19.277 0 0016.491 13.687l11.309 1.172-4.527 10.428a19.277 19.277 0 003.834 21.086l7.91 8.165-10.17 5.08a19.28 19.28 0 00-10.617 18.619c.414 5.784.809 11.338.809 11.338l-11.054-2.647a19.278 19.278 0 00-20.099 7.438l-6.67 9.206-6.767-9.133a19.275 19.275 0 00-20.178-7.221l-11.026 2.765.685-11.347a19.277 19.277 0 00-10.814-18.502l-10.224-4.968s3.828-4.04 7.82-8.25a19.279 19.279 0 003.605-21.127c-2.365-5.295-4.638-10.377-4.638-10.377l11.294-1.296a19.275 19.275 0 0016.343-13.864l3.117-10.93 9.485 6.267a19.279 19.279 0 0021.431-.116l9.415-6.369" fill="#9CE8C2"/><path d="M183.462 120.929c0-3.24 2.639-9.717 6.02-12.596 3.381-2.878 4.727-4.035 6.016-4.958 1.288-.92.59-3.463-1.364-2.284-1.952 1.18-4.997 2.884-4.997 2.884s3.686-3.271 5.012-4.48c1.326-1.208 1.06-3.093-.914-1.974-1.975 1.12-4.922 2.83-4.922 2.83s3.359-3.213 4.273-4.244c.914-1.031.207-2.358-1.679-1.149-1.887 1.207-4.422 2.977-4.422 2.977s2.646-2.977 3.622-3.95c.976-.974.181-2.358-1.351-1.179-1.534 1.179-6.16 4.098-8.666 7.486V94.72c0-.884-1.385-1.68-1.975.06-.589 1.738-9.709 12.384-9.709 26.148h15.056z" fill="#A36A63"/><path fill="#FF7968" d="M180.09 128.535h24.095V24.862H180.09z"/><path d="M204.184 128.535H180.09v.002c0 6.09 4.937 11.028 11.029 11.028h2.037c6.092 0 11.028-4.939 11.028-11.028v-.002z" fill="#FFF"/><path d="M200.79 120.71c0-3.238-2.616-9.498-5.998-12.377-3.38-2.878-4.726-4.035-6.015-4.958-1.29-.92-.59-3.463 1.364-2.284 1.951 1.18 4.994 2.884 4.994 2.884s-3.683-3.271-5.009-4.48c-1.326-1.208-1.061-3.093.914-1.975a736.35 736.35 0 014.922 2.832s-3.361-3.214-4.275-4.245c-.912-1.031-.205-2.357 1.68-1.149 1.888 1.206 4.422 2.977 4.422 2.977s-2.645-2.977-3.62-3.95c-.979-.974-.183-2.358 1.35-1.18 1.533 1.18 6.16 4.098 8.665 7.487v-5.57c0-.885 1.387-1.681 1.975.059.59 1.738 9.71 12.384 9.71 26.148-4.408 0-12.408-.22-15.08-.22" fill="#A36A63"/><path d="M168.407 120.929c-1.826 10.19-7.753 29.073-7.753 46.422v103.87h58.41l-.142-43.272H180.09v-107.02s-5.54-.117-11.683 0" fill="#B9E2FE"/><path stroke="#EDF8FF" stroke-width="1.667" stroke-linecap="round" stroke-linejoin="round" d="M173.055 227.949h7.035"/><path d="M192.097 202.49c3.681-.51 7.983 1.7 9.495 6.88 1.512 5.183-1.469 8.904-4.872 12.583-4.05-8.336-8.304-18.952-4.623-19.463" fill="#000"/><path d="M179.824 210.165s-6.923-13.632-5.125-21.979c1.8-8.346 6.045-3.525 8.923.073s10.397 17.528 13.69 24.344c-3.688 0-17.488-2.438-17.488-2.438" fill="#FF7968"/><path fill="#A36A63" d="M195.85 223.004l1.461 4.945h-9.715z"/><path d="M186.699 204.199c-4.586 1.979-13.702 11.59-9.623 20.957 3.505 8.05 16.91.81 19.607-3.147 2.7-3.96 1.46-10.61-2.427-13.696-3.323-2.635-4.442-3.239-7.557-4.114" fill="#A36A63"/><path d="M200.79 227.949s18.275 26.364 18.275 6.09v-67.346c0-10.102-3.197-45.764-3.197-45.764l-15.079-.22v107.24z" fill="#B9E2FE"/><path stroke="#EDF8FF" stroke-width="1.667" stroke-linecap="round" stroke-linejoin="round" d="M200.789 227.949v7.035"/><path fill="#000" d="M160.653 278.718h58.414v-7.497h-58.414z"/><path fill="#4FB3F6" d="M177.415 278.718l12.444 37.357 29.206 78.575h30.79l-30.79-115.932z"/><path fill="#9CE8C2" d="M189.86 278.718v37.357l-29.207 78.575h-30.79l30.79-115.932z"/><path stroke="#EDF8FF" stroke-width="1.667" stroke-linecap="round" stroke-linejoin="round" d="M211.869 227.949l-5.34 11.831M168.353 262.629h32.184M176.572 257.289l13.287 5.34"/><path fill="#000" d="M200.79 120.71h15.078l.66 7.825H200.79zM168.407 120.929h11.683v7.606h-13.315z"/><path fill="#A36A63" d="M249.855 394.629l2.998 11.288h-15.59l-4.917-11.288zM129.936 394.629l-2.998 11.288h15.59l4.917-11.288z"/><path d="M252.853 405.917h-15.59l10.049 23.054h34.398s.353-4.527-4.742-5.933c-5.094-1.405-19.21-4.012-20.83-8.42-1.618-4.407-3.285-8.701-3.285-8.701M126.893 405.917h15.588l-10.047 23.054h-34.4s-.35-4.527 4.744-5.933c5.095-1.405 19.209-4.012 20.827-8.42 1.619-4.407 3.288-8.701 3.288-8.701" fill="#B9E2FE"/><path d="M132.349 409.72a2.35 2.35 0 012.349 2.35 2.35 2.35 0 01-4.698 0 2.349 2.349 0 012.349-2.35M247.453 409.72a2.35 2.35 0 00-2.349 2.35 2.35 2.35 0 002.349 2.348 2.35 2.35 0 002.348-2.349 2.35 2.35 0 00-2.348-2.348" fill="#FFF"/><path d="M142.48 405.917h4.965s-2.663 2.79-4 2.79c0 1.382-1.834 2.013-3.057 2.013.664-1.552 2.092-4.803 2.092-4.803M237.319 405.917h-4.965s2.663 2.79 4 2.79c0 1.382 1.834 2.013 3.057 2.013-.664-1.552-2.092-4.803-2.092-4.803" fill="#FFDC8E"/><path stroke="#4FB3F6" stroke-width="1.667" stroke-linecap="round" stroke-linejoin="round" d="M189.859 316.054v-9.692"/><path stroke="#E3F7ED" stroke-width="1.667" stroke-linecap="round" stroke-linejoin="round" d="M173.546 297.618l16.313 8.744"/><path stroke="#B9E2FE" stroke-width="1.667" stroke-linecap="round" stroke-linejoin="round" d="M206.172 297.618l-16.313 8.744"/><path fill="#FFE8E5" d="M192.137 0l12.047 24.863h-24.093z"/><path fill="#000" d="M192.137 0l2.84 5.862h-5.68z"/><path d="M193.05 209.071s-5.597-.186-8.94 2.338" stroke="#000" stroke-width="1.667" stroke-linecap="round" stroke-linejoin="round"/><path d="M183.517 206.261s-.685-2.87.045-3.1c.728-.229 3.263 1.153 4.183 1.766-1.42.845-4.228 1.334-4.228 1.334" fill="#A36A63"/><path stroke="#9CE8C2" stroke-width="1.667" stroke-linecap="round" stroke-linejoin="round" d="M115.811 116.016H32.042M260.102 116.016h77.558M140.125 64.546l-37.631-37.632M248.828 58.781l23.707-23.708"/><path d="M105.261 76.7c-5.594.034-10.127 4.57-10.163 10.162v.065c0-5.645-4.583-10.227-10.228-10.227 5.645 0 10.228-4.585 10.228-10.23v.066c.036 5.616 4.605 10.164 10.23 10.164h-.067zM290.454 76.7c-5.594.034-10.127 4.57-10.163 10.162v.065c0-5.645-4.583-10.227-10.228-10.227 5.645 0 10.228-4.585 10.228-10.23v.066c.036 5.616 4.605 10.164 10.23 10.164h-.067zM152.016 19.454a5.41 5.41 0 00-5.374 5.374v.035a5.411 5.411 0 00-5.409-5.409 5.413 5.413 0 005.41-5.41v.036a5.414 5.414 0 005.41 5.374h-.037zM241.807 19.454a5.41 5.41 0 00-5.374 5.374v.035a5.411 5.411 0 00-5.41-5.409 5.413 5.413 0 005.41-5.41v.036a5.414 5.414 0 005.408 5.374h-.034z" fill="#9CE8C2"/></g></svg>